# xmcd
#
# Track frame offsets:
#	150
#	18370
#	37438
#	56723
#	72375
#	92826
#	112901
#	130957
#	148699
#	168436
#	185991
#	203549
#	218324
#	235858
#	253965
#
# Disc length: 3612 seconds
#
# Revision: 2
# Processed by: cddbd v1.4PL0 Copyright (c) Steve Scherf et al.
# Submitted via: audiograbber 1.80
#
DISCID=e20e1a0f
DTITLE=Marlon and Maicon - Tudo Azul
DYEAR=1900
DGENRE=
TTITLE0=Rezo
TTITLE1=Te Peço, Fica Comigo
TTITLE2=Romance Rosa
TTITLE3=Você Nasceu pra Mim
TTITLE4=Como Curar a Ferida?
TTITLE5=Podia ser Você
TTITLE6=Quando me Entrego ao Amor
TTITLE7=Você nem Imagina
TTITLE8=Não te Amar é Impossível
TTITLE9=Tudo Azul
TTITLE10=Olhos Verdes Azuis
TTITLE11=É Sempre Assim
TTITLE12=Pra Sempre
TTITLE13=Um Cara Romântico
TTITLE14=Chegou a Minha Hora
EXTD=
EXTT0=
EXTT1=
EXTT2=
EXTT3=
EXTT4=
EXTT5=
EXTT6=
EXTT7=
EXTT8=
EXTT9=
EXTT10=
EXTT11=
EXTT12=
EXTT13=
EXTT14=
PLAYORDER=
